<?xml version="1.0" encoding="utf-8"?>
<!-- Generator: Adobe Illustrator 26.0.1, SVG Export Plug-In . SVG Version: 6.00 Build 0)  -->
<svg version="1.1" xmlns="http://www.w3.org/2000/svg" xmlns:xlink="http://www.w3.org/1999/xlink" x="0px" y="0px"
	 viewBox="0 0 595.28 572.31" style="enable-background:new 0 0 595.28 572.31;" xml:space="preserve">
<style type="text/css">
	.st0{fill:#020204;}
</style>
<g id="Слой_1">
</g>
<g id="Слой_2">
	<g>
		<path class="st0" d="M390.46,296.69h-16v-24.02c0-1.02-0.35-1.81-1.06-2.38c-0.7-0.58-1.52-0.86-2.46-0.86
			c-0.94,0-1.76,0.29-2.46,0.86c-0.71,0.58-1.06,1.37-1.06,2.38v30.5h23.03c1.09,0,1.94-0.31,2.56-0.94
			c0.62-0.63,0.93-1.39,0.93-2.29c0-0.86-0.31-1.62-0.93-2.27C392.39,297.02,391.55,296.69,390.46,296.69z"/>
		<path class="st0" d="M273.51,274.69c-1.46-1.85-3.21-3.23-5.25-4.14c-2.05-0.92-4.42-1.38-7.11-1.38c-5.62,0-9.99,1.54-13.1,4.62
			c-1.55,1.54-2.72,3.34-3.5,5.41c-0.79,2.09-1.18,4.45-1.18,7.09c0,2.5,0.4,4.74,1.21,6.73c0.8,1.98,2,3.71,3.6,5.21
			c1.6,1.49,3.45,2.62,5.57,3.36c2.13,0.75,4.52,1.13,7.18,1.13c0.11,0,0.22,0,0.32-0.01v-6.47c-0.11-0.01-0.21-0.01-0.32-0.01
			c-2.13,0-3.95-0.34-5.47-1.03c-1.55-0.7-2.77-1.76-3.65-3.16l-0.81-1.29h1.61h24.77v-3.38c0-2.57-0.33-4.91-0.98-7.03
			C275.76,278.24,274.79,276.36,273.51,274.69z M250.39,284.27l0.19-1.01c0.48-2.52,1.63-4.42,3.42-5.71
			c1.78-1.27,4.16-1.91,7.14-1.91c2.36,0,4.28,0.66,5.76,1.97c1.44,1.28,2.43,3.16,2.96,5.64l0.22,1.03H250.39z"/>
		<path class="st0" d="M112.15,283.11c1.35-1.11,2.17-2.51,2.21-4.3c0.08-4.51,2.3-7.89,6.71-9.75c-6.73-1.18-13.51,1.75-17.26,7.45
			c-3.75,5.71-3.75,13.1,0,18.8c3.75,5.71,10.54,8.63,17.26,7.45l0,0c-3.2-4.3-4.53-4.88-5.63-5l-0.01,0l-0.01,0l0,0l0,0l0,0l0,0
			l0,0l0,0l-0.01,0l-0.01,0l0,0h0l0,0h0l0,0l0,0h0l-0.01,0h0h0l-0.01,0h0l0,0h0h0l-0.01,0h0l-0.01,0l-0.01,0l-0.01,0h0l-0.01,0
			h-0.01l-0.01,0h-0.01l-0.01,0h-0.01h-0.01l-0.01,0h-0.01l-0.01,0h-0.01l-0.07,0c-0.52-0.03-1.1-0.06-1.66-0.12
			c-0.98-0.11-1.88-0.34-2.21-0.94c-0.4-0.81-0.35-1.63,0.07-2.47c0.25-0.49,0.41-0.81,0.06-1.16c-0.32-0.32-0.63-0.43-0.69-0.87
			c-0.06-0.5,0.18-0.88,0.49-1.1c0.14-0.1,0.34-0.12,0.51-0.21c0.54-0.27-0.76-0.5-1.08-1.1c-0.19-0.36-0.12-0.81,0.17-1.19
			c0.25-0.33,0.54-0.62,0.55-1.14c0.02-0.94-0.98-1.18-1.21-2.1C109.89,284.36,111.59,283.58,112.15,283.11z"/>
		<path class="st0" d="M355.49,269.6c-1.05-0.18-2.12-0.27-3.2-0.27c-4.99,0-9.5,1.89-12.76,4.94c-3.26,3.06-5.26,7.28-5.26,11.96
			c0,4.66,2.01,8.87,5.27,11.93c3.26,3.05,7.76,4.93,12.75,4.93c1.09,0,2.15-0.09,3.2-0.27c1.03-0.17,2.04-0.43,3.01-0.75l0.76-0.25
			v-7.57l-1.74,1c-0.78,0.45-1.62,0.79-2.49,1.02c-0.87,0.23-1.79,0.34-2.74,0.34c-2.9,0-5.53-1.16-7.45-3.03
			c-1.93-1.88-3.12-4.49-3.12-7.35c0-2.89,1.19-5.5,3.12-7.38c1.91-1.88,4.55-3.04,7.45-3.04c0.94,0,1.84,0.12,2.69,0.35
			c0.88,0.24,1.74,0.6,2.54,1.06l1.74,1v-7.62l-0.76-0.25C357.52,270.03,356.52,269.77,355.49,269.6z"/>
		<path class="st0" d="M304.69,283.59c-2.75-0.58-5.51-1.16-8.26-1.74c-4.07-0.94-6.11-2.05-6.11-3.35c0-0.94,0.78-1.66,2.33-2.17
			c1.36-0.47,3.1-0.7,5.23-0.7c2.99-0.04,5.25,0.31,6.81,1.06c0.58,0.26,1.12,0.4,1.63,0.4c0.97,0,1.78-0.35,2.44-1.05
			c0.66-0.7,0.99-1.48,0.99-2.35c0-1.26-0.66-2.2-1.98-2.81c-2.52-1.15-5.7-1.73-9.54-1.73c-3.92,0-7.21,0.65-9.89,1.94
			c-3.37,1.66-5.06,4.14-5.06,7.45c0,5.36,4.46,8.64,13.38,9.83c5.47,0.72,8.2,2.14,8.2,4.27c0,0.9-0.64,1.91-1.92,3.02
			c-1.05,0.9-2.97,1.35-5.76,1.35c-2.91,0-5.78-0.52-8.61-1.57c-0.47-0.18-0.93-0.27-1.4-0.27c-0.97,0-1.78,0.34-2.44,1.03
			c-0.66,0.68-0.99,1.46-0.99,2.32c0,1.4,0.74,2.38,2.21,2.92c3.64,1.37,7.39,2.05,11.22,2.05c4.61,0,8.1-1.03,10.47-3.09
			c2.95-2.52,4.42-5.25,4.42-8.16c0-2.13-0.83-4.04-2.5-5.74C308.38,285.28,306.75,284.31,304.69,283.59z"/>
		<path class="st0" d="M186.1,283.59c-2.75-0.58-5.51-1.16-8.26-1.74c-4.07-0.94-6.11-2.05-6.11-3.35c0-0.94,0.78-1.66,2.33-2.17
			c1.36-0.47,3.1-0.7,5.23-0.7c2.99-0.04,5.25,0.31,6.8,1.06c0.58,0.26,1.12,0.4,1.63,0.4c0.97,0,1.78-0.35,2.44-1.05
			c0.66-0.7,0.99-1.48,0.99-2.35c0-1.26-0.66-2.2-1.98-2.81c-2.52-1.15-5.7-1.73-9.54-1.73c-3.92,0-7.21,0.65-9.89,1.94
			c-3.37,1.66-5.06,4.14-5.06,7.45c0,5.36,4.46,8.64,13.38,9.83c5.47,0.72,8.2,2.14,8.2,4.27c0,0.9-0.64,1.91-1.92,3.02
			c-1.05,0.9-2.97,1.35-5.76,1.35c-2.91,0-5.78-0.52-8.61-1.57c-0.47-0.18-0.93-0.27-1.4-0.27c-0.97,0-1.78,0.34-2.44,1.03
			c-0.66,0.68-0.99,1.46-0.99,2.32c0,1.4,0.74,2.38,2.21,2.92c3.64,1.37,7.39,2.05,11.22,2.05c4.61,0,8.1-1.03,10.47-3.09
			c2.95-2.52,4.42-5.25,4.42-8.16c0-2.13-0.83-4.04-2.5-5.74C189.78,285.28,188.15,284.31,186.1,283.59z"/>
		<path class="st0" d="M487.31,275.8c0.94,0,1.84,0.12,2.69,0.35c0.88,0.24,1.74,0.6,2.54,1.06l1.74,1v-7.62l-0.76-0.25
			c-0.97-0.32-1.98-0.58-3.01-0.75c-1.05-0.18-2.12-0.27-3.2-0.27c-4.99,0-9.5,1.89-12.76,4.94c-3.26,3.06-5.26,7.28-5.26,11.96
			c0,4.66,2.01,8.87,5.27,11.93c3.26,3.05,7.76,4.93,12.75,4.93c1.09,0,2.15-0.09,3.2-0.27c1.03-0.17,2.04-0.43,3.01-0.75l0.76-0.25
			v-7.57l-1.74,1c-0.78,0.45-1.62,0.79-2.49,1.02c-0.87,0.23-1.79,0.34-2.74,0.34c-2.9,0-5.53-1.16-7.45-3.03
			c-1.93-1.88-3.12-4.49-3.12-7.35c0-2.89,1.19-5.5,3.12-7.38C481.78,276.97,484.41,275.8,487.31,275.8z"/>
		<path class="st0" d="M199.92,269.25v30.67c0,1.04,0.35,1.85,1.06,2.41c0.7,0.57,1.52,0.85,2.46,0.85c0.98,0,1.81-0.28,2.49-0.84
			c0.69-0.57,1.03-1.37,1.03-2.41v-11.28l11.69,14.04l11.69-14.04v11.28c0,1.04,0.34,1.84,1.03,2.41c0.68,0.56,1.51,0.84,2.49,0.84
			c0.94,0,1.76-0.28,2.46-0.85c0.71-0.56,1.06-1.37,1.06-2.41v-30.67l-18.73,21.88L199.92,269.25z"/>
		<path class="st0" d="M157.85,279.53c-0.96-2.24-2.27-4.12-3.92-5.66c-0.82-0.76-1.72-1.45-2.69-2.06c-0.96-0.6-1.99-1.12-3.1-1.57
			h0c-1.11-0.45-2.26-0.78-3.44-1.01c-1.19-0.23-2.41-0.34-3.65-0.34c-1.24,0-2.45,0.11-3.65,0.34c-1.18,0.22-2.32,0.56-3.44,1.01h0
			c-2.21,0.89-4.14,2.1-5.78,3.63c-1.65,1.53-2.96,3.42-3.92,5.66c-0.96,2.23-1.44,4.5-1.44,6.8c0,1.15,0.12,2.28,0.37,3.38
			c0.24,1.09,0.6,2.16,1.09,3.19v0c0.48,1.03,1.05,1.99,1.69,2.87c0.65,0.9,1.39,1.73,2.22,2.5c0.82,0.76,1.72,1.45,2.69,2.06
			c0.95,0.6,1.98,1.12,3.1,1.57c1.11,0.45,2.26,0.78,3.44,1.01c1.19,0.23,2.41,0.34,3.65,0.34s2.45-0.11,3.65-0.34
			c1.18-0.22,2.33-0.56,3.44-1.01c1.11-0.45,2.14-0.97,3.1-1.57c0.97-0.61,1.87-1.29,2.69-2.06c0.83-0.77,1.57-1.6,2.22-2.49
			c0.64-0.88,1.21-1.84,1.69-2.88c0.48-1.03,0.85-2.1,1.09-3.19c0.24-1.11,0.36-2.24,0.36-3.38c0-1.15-0.12-2.3-0.36-3.44
			C158.69,281.77,158.33,280.65,157.85,279.53z M152.69,288.54c-0.15,0.69-0.38,1.38-0.69,2.05c-0.31,0.67-0.68,1.29-1.1,1.87
			c-0.43,0.59-0.91,1.13-1.44,1.62c-0.53,0.5-1.12,0.94-1.76,1.34v0c-0.63,0.39-1.31,0.74-2.04,1.04c-0.72,0.29-1.46,0.51-2.23,0.66
			c-0.75,0.14-1.55,0.22-2.38,0.22c-0.83,0-1.62-0.07-2.37-0.22c-0.75-0.14-1.48-0.36-2.2-0.66c-0.72-0.3-1.4-0.64-2.02-1.04
			c-0.63-0.4-1.22-0.85-1.75-1.35v0c-0.54-0.51-1.03-1.05-1.45-1.63c-0.43-0.58-0.8-1.21-1.12-1.88c-0.32-0.67-0.55-1.35-0.71-2.04
			c-0.16-0.7-0.23-1.43-0.23-2.2c0-0.77,0.08-1.53,0.24-2.29c0.16-0.76,0.4-1.52,0.72-2.29c0.32-0.75,0.69-1.45,1.12-2.08
			c0.43-0.62,0.9-1.18,1.43-1.67l0,0c0.53-0.49,1.11-0.94,1.75-1.33c0.63-0.39,1.3-0.73,2.02-1.02c0.72-0.29,1.46-0.5,2.21-0.64
			c0.75-0.14,1.54-0.21,2.37-0.21c0.83,0,1.62,0.07,2.37,0.22c0.75,0.14,1.48,0.36,2.2,0.66c0.72,0.3,1.4,0.64,2.02,1.04
			c0.62,0.39,1.21,0.84,1.75,1.35c0.54,0.5,1.02,1.06,1.43,1.66c0.42,0.62,0.8,1.3,1.12,2.06c0.32,0.75,0.56,1.51,0.72,2.27
			c0.16,0.75,0.24,1.51,0.24,2.28C152.91,287.1,152.84,287.84,152.69,288.54z"/>
		<path class="st0" d="M459.51,269.43c-0.94,0-1.76,0.29-2.46,0.86c-0.71,0.58-1.06,1.37-1.06,2.38v27.25
			c0,1.05,0.35,1.85,1.06,2.41c0.7,0.56,1.52,0.84,2.46,0.84c0.98,0,1.81-0.28,2.49-0.84c0.69-0.56,1.03-1.36,1.03-2.41v-27.25
			c0-1.02-0.34-1.81-1.03-2.38C461.32,269.72,460.49,269.43,459.51,269.43z"/>
		<path class="st0" d="M404.45,269.43c-0.94,0-1.76,0.29-2.46,0.86c-0.71,0.58-1.06,1.37-1.06,2.38v27.25
			c0,1.05,0.35,1.85,1.06,2.41c0.7,0.56,1.52,0.84,2.46,0.84c0.98,0,1.81-0.28,2.49-0.84c0.69-0.56,1.03-1.36,1.03-2.41v-27.25
			c0-1.02-0.34-1.81-1.03-2.38C406.27,269.72,405.43,269.43,404.45,269.43z"/>
		<path class="st0" d="M444.76,269.43c-0.98,0-1.81,0.29-2.49,0.86c-0.69,0.58-1.03,1.37-1.03,2.38v14.63L416,269.43v30.35
			c0,1.04,0.35,1.84,1.06,2.39c0.7,0.56,1.52,0.84,2.46,0.84c0.98,0,1.81-0.28,2.49-0.83c0.69-0.56,1.03-1.36,1.03-2.39v-16.7
			l25.24,19.92v-30.34c0-1.01-0.35-1.8-1.06-2.38C446.53,269.72,445.7,269.43,444.76,269.43z"/>
	</g>
</g>
</svg>
