<?xml version="1.0" encoding="utf-8"?>
<!-- Generator: Adobe Illustrator 26.0.1, SVG Export Plug-In . SVG Version: 6.00 Build 0)  -->
<svg version="1.1" xmlns="http://www.w3.org/2000/svg" xmlns:xlink="http://www.w3.org/1999/xlink" x="0px" y="0px"
	 viewBox="0 0 595.28 572.31" style="enable-background:new 0 0 595.28 572.31;" xml:space="preserve">
<style type="text/css">
	.st0{fill:#020204;}
</style>
<g id="Слой_1">
</g>
<g id="Слой_2">
	<g>
		<path class="st0" d="M393.79,281.73c0-0.86-0.31-1.62-0.93-2.27c-0.62-0.65-1.46-0.97-2.55-0.97h-16v-24.02
			c0-1.02-0.35-1.81-1.06-2.38c-0.7-0.58-1.52-0.86-2.46-0.86s-1.76,0.29-2.46,0.86c-0.71,0.58-1.06,1.37-1.06,2.38v30.5h23.03
			c1.09,0,1.94-0.31,2.56-0.94C393.48,283.4,393.79,282.63,393.79,281.73z"/>
		<path class="st0" d="M273.36,256.49c-1.46-1.85-3.21-3.23-5.25-4.14c-2.05-0.92-4.42-1.38-7.11-1.38c-5.62,0-9.99,1.54-13.1,4.62
			c-1.55,1.54-2.72,3.34-3.5,5.41c-0.79,2.09-1.18,4.45-1.18,7.09c0,2.5,0.4,4.74,1.21,6.73c0.8,1.98,2,3.71,3.6,5.21
			c1.6,1.49,3.45,2.62,5.57,3.36c2.13,0.75,4.52,1.13,7.18,1.13c0.11,0,0.22,0,0.32-0.01v-6.47c-0.11-0.01-0.21-0.01-0.32-0.01
			c-2.13,0-3.95-0.34-5.47-1.03c-1.55-0.7-2.77-1.76-3.65-3.16l-0.81-1.29h1.61h24.77v-3.38c0-2.57-0.33-4.91-0.98-7.03
			C275.61,260.04,274.64,258.16,273.36,256.49z M250.24,266.07l0.19-1.01c0.48-2.52,1.63-4.42,3.42-5.71
			c1.78-1.27,4.16-1.91,7.14-1.91c2.36,0,4.28,0.66,5.76,1.97c1.44,1.28,2.43,3.16,2.96,5.64l0.22,1.03H250.24z"/>
		<path class="st0" d="M112,264.91c1.35-1.11,2.17-2.51,2.21-4.3c0.08-4.51,2.3-7.89,6.71-9.75c-6.73-1.18-13.51,1.75-17.26,7.45
			c-3.75,5.71-3.75,13.1,0,18.8c3.75,5.71,10.54,8.63,17.26,7.45l0,0c-3.2-4.3-4.53-4.88-5.63-5l-0.01,0l-0.01,0l0,0l0,0l0,0l0,0
			l0,0l0,0l-0.01,0l-0.01,0l0,0h0l0,0h0l0,0l0,0h0l-0.01,0h0h0l-0.01,0h0l0,0h0h0l-0.01,0h0l-0.01,0l-0.01,0l-0.01,0h0l-0.01,0
			h-0.01l-0.01,0h-0.01l-0.01,0h-0.01h-0.01l-0.01,0h-0.01l-0.01,0h-0.01l-0.07,0c-0.52-0.03-1.1-0.06-1.66-0.12
			c-0.98-0.11-1.88-0.34-2.21-0.94c-0.4-0.81-0.35-1.63,0.07-2.47c0.25-0.49,0.41-0.81,0.06-1.16c-0.32-0.32-0.63-0.43-0.69-0.87
			c-0.06-0.5,0.18-0.88,0.49-1.1c0.14-0.1,0.34-0.12,0.51-0.21c0.54-0.27-0.76-0.5-1.08-1.1c-0.19-0.36-0.12-0.81,0.17-1.19
			c0.25-0.33,0.54-0.62,0.55-1.14c0.02-0.94-0.98-1.18-1.21-2.1C109.74,266.16,111.44,265.38,112,264.91z"/>
		<path class="st0" d="M352.13,284.89c1.09,0,2.15-0.09,3.2-0.27c1.03-0.17,2.04-0.43,3.01-0.75l0.76-0.25v-7.57l-1.74,1
			c-0.78,0.45-1.62,0.79-2.49,1.02c-0.87,0.23-1.79,0.34-2.74,0.34c-2.9,0-5.53-1.16-7.45-3.03c-1.93-1.88-3.12-4.49-3.12-7.35
			c0-2.89,1.19-5.5,3.12-7.38c1.91-1.88,4.55-3.04,7.45-3.04c0.94,0,1.84,0.12,2.69,0.35c0.88,0.24,1.74,0.6,2.54,1.06l1.74,1v-7.62
			l-0.76-0.25c-0.97-0.32-1.98-0.58-3.01-0.75c-1.05-0.18-2.12-0.27-3.2-0.27c-4.99,0-9.5,1.89-12.76,4.94
			c-3.26,3.06-5.26,7.28-5.26,11.96c0,4.66,2.01,8.87,5.27,11.93C342.64,283,347.15,284.89,352.13,284.89z"/>
		<path class="st0" d="M304.54,265.39c-2.75-0.58-5.51-1.16-8.26-1.74c-4.07-0.94-6.11-2.05-6.11-3.35c0-0.94,0.78-1.66,2.33-2.17
			c1.36-0.47,3.1-0.7,5.23-0.7c2.99-0.04,5.25,0.31,6.81,1.06c0.58,0.26,1.12,0.4,1.63,0.4c0.97,0,1.78-0.35,2.44-1.05
			c0.66-0.7,0.99-1.48,0.99-2.35c0-1.26-0.66-2.2-1.98-2.81c-2.52-1.15-5.7-1.73-9.54-1.73c-3.92,0-7.21,0.65-9.89,1.94
			c-3.37,1.66-5.06,4.14-5.06,7.45c0,5.36,4.46,8.64,13.38,9.83c5.47,0.72,8.2,2.14,8.2,4.27c0,0.9-0.64,1.91-1.92,3.02
			c-1.05,0.9-2.97,1.35-5.76,1.35c-2.91,0-5.78-0.52-8.61-1.57c-0.47-0.18-0.93-0.27-1.4-0.27c-0.97,0-1.78,0.34-2.44,1.03
			c-0.66,0.68-0.99,1.46-0.99,2.32c0,1.4,0.74,2.38,2.21,2.92c3.64,1.37,7.39,2.05,11.22,2.05c4.61,0,8.1-1.03,10.47-3.09
			c2.95-2.52,4.42-5.25,4.42-8.16c0-2.13-0.83-4.04-2.5-5.74C308.23,267.08,306.6,266.11,304.54,265.39z"/>
		<path class="st0" d="M185.95,265.39c-2.75-0.58-5.51-1.16-8.26-1.74c-4.07-0.94-6.11-2.05-6.11-3.35c0-0.94,0.78-1.66,2.33-2.17
			c1.36-0.47,3.1-0.7,5.23-0.7c2.99-0.04,5.25,0.31,6.8,1.06c0.58,0.26,1.12,0.4,1.63,0.4c0.97,0,1.78-0.35,2.44-1.05
			c0.66-0.7,0.99-1.48,0.99-2.35c0-1.26-0.66-2.2-1.98-2.81c-2.52-1.15-5.7-1.73-9.54-1.73c-3.92,0-7.21,0.65-9.89,1.94
			c-3.37,1.66-5.06,4.14-5.06,7.45c0,5.36,4.46,8.64,13.38,9.83c5.47,0.72,8.2,2.14,8.2,4.27c0,0.9-0.64,1.91-1.92,3.02
			c-1.05,0.9-2.97,1.35-5.76,1.35c-2.91,0-5.78-0.52-8.61-1.57c-0.47-0.18-0.93-0.27-1.4-0.27c-0.97,0-1.78,0.34-2.44,1.03
			c-0.66,0.68-0.99,1.46-0.99,2.32c0,1.4,0.74,2.38,2.21,2.92c3.64,1.37,7.39,2.05,11.22,2.05c4.61,0,8.1-1.03,10.47-3.09
			c2.95-2.52,4.42-5.25,4.42-8.16c0-2.13-0.83-4.04-2.5-5.74C189.63,267.08,188,266.11,185.95,265.39z"/>
		<path class="st0" d="M487.16,284.89c1.09,0,2.15-0.09,3.2-0.27c1.03-0.17,2.04-0.43,3.01-0.75l0.76-0.25v-7.57l-1.74,1
			c-0.78,0.45-1.62,0.79-2.49,1.02c-0.87,0.23-1.79,0.34-2.74,0.34c-2.9,0-5.53-1.16-7.45-3.03c-1.93-1.88-3.12-4.49-3.12-7.35
			c0-2.89,1.19-5.5,3.12-7.38c1.91-1.88,4.55-3.04,7.45-3.04c0.94,0,1.84,0.12,2.69,0.35c0.88,0.24,1.74,0.6,2.54,1.06l1.74,1v-7.62
			l-0.76-0.25c-0.97-0.32-1.98-0.58-3.01-0.75c-1.05-0.18-2.12-0.27-3.2-0.27c-4.99,0-9.5,1.89-12.76,4.94
			c-3.26,3.06-5.26,7.28-5.26,11.96c0,4.66,2.01,8.87,5.27,11.93C477.67,283,482.17,284.89,487.16,284.89z"/>
		<path class="st0" d="M199.77,251.05v30.67c0,1.04,0.35,1.85,1.06,2.41c0.7,0.57,1.52,0.85,2.46,0.85c0.98,0,1.81-0.28,2.49-0.84
			c0.69-0.57,1.03-1.37,1.03-2.41v-11.28l11.69,14.04l11.69-14.04v11.28c0,1.04,0.34,1.84,1.03,2.41c0.68,0.56,1.51,0.84,2.49,0.84
			c0.94,0,1.76-0.28,2.46-0.85c0.71-0.56,1.06-1.37,1.06-2.41v-30.67l-18.73,21.88L199.77,251.05z"/>
		<path class="st0" d="M157.7,261.33c-0.96-2.24-2.27-4.12-3.92-5.66c-0.82-0.76-1.72-1.45-2.69-2.06c-0.96-0.6-1.99-1.12-3.1-1.57
			h0c-1.11-0.45-2.26-0.78-3.44-1.01c-1.19-0.23-2.41-0.34-3.65-0.34c-1.24,0-2.45,0.11-3.65,0.34c-1.18,0.22-2.32,0.56-3.44,1.01h0
			c-2.21,0.89-4.14,2.1-5.78,3.63c-1.65,1.53-2.96,3.42-3.92,5.66c-0.96,2.23-1.44,4.5-1.44,6.8c0,1.15,0.12,2.28,0.37,3.38
			c0.24,1.09,0.6,2.16,1.09,3.19v0c0.48,1.03,1.05,1.99,1.69,2.87c0.65,0.9,1.39,1.73,2.22,2.5c0.82,0.76,1.72,1.45,2.69,2.06
			c0.95,0.6,1.98,1.12,3.1,1.57c1.11,0.45,2.26,0.78,3.44,1.01c1.19,0.23,2.41,0.34,3.65,0.34c1.24,0,2.45-0.11,3.65-0.34
			c1.18-0.22,2.33-0.56,3.44-1.01c1.11-0.45,2.14-0.97,3.1-1.57c0.97-0.61,1.87-1.29,2.69-2.06c0.83-0.77,1.57-1.6,2.22-2.49
			c0.64-0.88,1.21-1.84,1.69-2.88c0.48-1.03,0.85-2.1,1.09-3.19c0.24-1.11,0.36-2.24,0.36-3.38c0-1.15-0.12-2.3-0.36-3.44
			C158.54,263.57,158.18,262.45,157.7,261.33z M152.54,270.34c-0.15,0.69-0.38,1.38-0.69,2.05c-0.31,0.67-0.68,1.29-1.1,1.87
			c-0.43,0.59-0.91,1.13-1.44,1.62c-0.53,0.5-1.12,0.94-1.76,1.34v0c-0.63,0.39-1.31,0.74-2.04,1.04c-0.72,0.29-1.46,0.51-2.23,0.66
			c-0.75,0.14-1.55,0.22-2.38,0.22c-0.83,0-1.62-0.07-2.37-0.22c-0.75-0.14-1.48-0.36-2.2-0.66c-0.72-0.3-1.4-0.64-2.02-1.04
			c-0.63-0.4-1.22-0.85-1.75-1.35v0c-0.54-0.51-1.03-1.05-1.45-1.63c-0.43-0.58-0.8-1.21-1.12-1.88c-0.32-0.67-0.55-1.35-0.71-2.04
			c-0.16-0.7-0.23-1.43-0.23-2.2c0-0.77,0.08-1.53,0.24-2.29c0.16-0.76,0.4-1.52,0.72-2.29c0.32-0.75,0.69-1.45,1.12-2.08
			c0.43-0.62,0.9-1.18,1.43-1.67l0,0c0.53-0.49,1.11-0.94,1.75-1.33c0.63-0.39,1.3-0.73,2.02-1.02c0.72-0.29,1.46-0.5,2.21-0.64
			c0.75-0.14,1.54-0.21,2.37-0.21c0.83,0,1.62,0.07,2.37,0.22c0.75,0.14,1.48,0.36,2.2,0.66c0.72,0.3,1.4,0.64,2.02,1.04
			c0.62,0.39,1.21,0.84,1.75,1.35c0.54,0.5,1.02,1.06,1.43,1.66c0.42,0.62,0.8,1.3,1.12,2.06c0.32,0.75,0.56,1.51,0.72,2.27
			c0.16,0.75,0.24,1.51,0.24,2.28C152.76,268.9,152.69,269.64,152.54,270.34z"/>
		<path class="st0" d="M462.88,281.73v-27.25c0-1.02-0.34-1.81-1.03-2.38c-0.68-0.58-1.51-0.86-2.49-0.86
			c-0.94,0-1.76,0.29-2.46,0.86c-0.71,0.58-1.06,1.37-1.06,2.38v27.25c0,1.05,0.35,1.85,1.06,2.41c0.7,0.56,1.52,0.84,2.46,0.84
			c0.98,0,1.81-0.28,2.49-0.84C462.54,283.58,462.88,282.78,462.88,281.73z"/>
		<path class="st0" d="M404.3,251.23c-0.94,0-1.76,0.29-2.46,0.86c-0.71,0.58-1.06,1.37-1.06,2.38v27.25c0,1.05,0.35,1.85,1.06,2.41
			c0.7,0.56,1.52,0.84,2.46,0.84c0.98,0,1.81-0.28,2.49-0.84c0.69-0.56,1.03-1.36,1.03-2.41v-27.25c0-1.02-0.34-1.81-1.03-2.38
			C406.12,251.52,405.28,251.23,404.3,251.23z"/>
		<path class="st0" d="M448.13,254.47c0-1.01-0.35-1.8-1.06-2.38c-0.7-0.58-1.52-0.86-2.46-0.86c-0.98,0-1.81,0.29-2.49,0.86
			c-0.69,0.58-1.03,1.37-1.03,2.38v14.63l-25.24-17.87v30.35c0,1.04,0.35,1.84,1.06,2.39c0.7,0.56,1.52,0.84,2.46,0.84
			c0.98,0,1.81-0.28,2.49-0.83c0.69-0.56,1.03-1.36,1.03-2.39v-16.7l25.24,19.92V254.47z"/>
		<path class="st0" d="M309.32,310.62h-0.03c-0.29,0-0.52,0.24-0.52,0.52c0,0.2,0,0.47,0,0.49c0,0.22-0.17,0.17-0.22,0.08
			c-0.66-0.83-1.83-1.3-2.99-1.3c-2.37,0-4.28,1.91-4.28,4.27c0,2.37,1.94,4.24,4.31,4.24c1.2,0,2.3-0.49,3.02-1.35
			c0.03-0.05,0.15-0.08,0.15,0.12c0,0.12,0,0.51,0,0.51c0,0.27,0.24,0.51,0.52,0.51h0.03c0.29,0,0.52-0.24,0.52-0.52v-7.05
			C309.85,310.85,309.61,310.62,309.32,310.62z M305.59,317.92c-1.77,0-3.23-1.47-3.23-3.23c0-1.76,1.42-3.26,3.19-3.26
			c1.76,0,3.19,1.5,3.19,3.26C308.75,316.45,307.34,317.92,305.59,317.92z"/>
		<path class="st0" d="M320.81,310.41c-1.01,0-1.81,0.3-2.55,0.91c-0.07,0.07-0.14,0.17-0.14,0.34c0,0.29,0,0.81,0,0.95
			c0,0.24,0.1,0.35,0.37,0.02c0.59-0.73,1.34-1.2,2.32-1.2c1.39,0,2.55,0.91,2.99,2.15c0.03,0.1,0.07,0.3-0.13,0.3
			c-0.19,0-3.08,0-3.08,0c-0.29,0-0.52,0.24-0.52,0.52v0.05c0,0.29,0.24,0.52,0.52,0.52c0,0,3.04,0,3.19,0
			c0.17,0,0.17,0.14,0.17,0.2c-0.25,1.52-1.55,2.74-3.14,2.74c-1.05,0-1.99-0.59-2.57-1.4c-0.1-0.14-0.25-0.24-0.25,0.05
			c0,0.2,0,0.74,0,1.05c0,0.17,0.05,0.27,0.14,0.35c0.74,0.59,1.67,0.96,2.69,0.96c2.37,0,4.27-1.93,4.27-4.27
			S323.18,310.41,320.81,310.41z"/>
		<path class="st0" d="M256.7,314.13c-0.1-0.13-0.07-0.24,0.02-0.32c0.1-0.08,2.3-2.06,2.3-2.06c0.22-0.2,0.24-0.52,0.05-0.74
			l-0.03-0.03c-0.2-0.2-0.52-0.22-0.74-0.03c0,0-3.16,2.92-3.3,3.04c-0.14,0.14-0.22,0.08-0.22-0.1c0-0.2,0-2.74,0-2.74
			c0-0.29-0.24-0.52-0.52-0.52h-0.05c-0.29,0-0.52,0.24-0.52,0.52v7.05c0,0.29,0.24,0.52,0.52,0.52h0.05c0.29,0,0.52-0.24,0.52-0.52
			c0,0,0-2.3,0-2.48c0-0.2,0.05-0.29,0.15-0.37c0.22-0.2,0.69-0.66,0.76-0.73c0.1-0.08,0.22-0.08,0.3,0.02
			c0.08,0.12,2.65,3.87,2.65,3.87c0.17,0.24,0.51,0.29,0.74,0.12l0.03-0.03c0.22-0.17,0.27-0.51,0.1-0.73
			C259.52,317.85,256.82,314.28,256.7,314.13z"/>
		<path class="st0" d="M275.51,310.62h-0.03c-0.3,0-0.54,0.24-0.54,0.54c0,0,0,4.36,0,4.56c0,1.44-0.74,2.16-2.3,2.16
			c-1.2,0-2.16-0.76-2.16-2.47v-4.26c0-0.3-0.24-0.54-0.52-0.54h-0.05c-0.29,0-0.54,0.24-0.54,0.54v4.33c0,2.67,1.71,3.45,3.28,3.45
			c0.68,0,1.69-0.24,2.18-0.91c0.05-0.07,0.14-0.03,0.14,0.03c0,0.03,0,0.19,0,0.22c0,0.24,0.25,0.44,0.52,0.44h0.05
			c0.29,0,0.54-0.24,0.54-0.54l-0.02-7.01C276.05,310.85,275.81,310.62,275.51,310.62z"/>
		<path class="st0" d="M284.26,310.62h-0.05c-0.29,0-0.52,0.24-0.52,0.52v2.67c0,0.08-0.07,0.15-0.15,0.15h-4.53
			c-0.08,0-0.15-0.07-0.15-0.15v-2.67c0-0.29-0.24-0.52-0.52-0.52h-0.05c-0.29,0-0.52,0.24-0.52,0.52v7.05
			c0,0.29,0.24,0.52,0.52,0.52h0.05c0.29,0,0.52-0.24,0.52-0.52v-2.97c0-0.08,0.07-0.15,0.15-0.15h4.53c0.08,0,0.15,0.07,0.15,0.15
			v2.97c0,0.29,0.24,0.52,0.52,0.52h0.05c0.29,0,0.52-0.24,0.52-0.52v-7.05C284.79,310.85,284.55,310.62,284.26,310.62z"/>
		<path class="st0" d="M264.44,310.6c-0.14-0.25-0.34-0.25-0.46,0c0,0-3.36,7.27-3.51,7.57c-0.15,0.3,0.13,0.54,0.37,0.54
			c0.05,0,0.1,0,0.1,0c0.42,0,0.56-0.08,0.74-0.47c0,0,2.09-4.87,2.25-5.2c0.05-0.12,0.15-0.41,0.19-0.49
			c0.08-0.25,0.07-0.24,0.17,0.02c0.05,0.12,0.15,0.39,0.2,0.49c0.17,0.35,2.23,5.19,2.23,5.19c0.15,0.32,0.29,0.47,0.74,0.47h0.08
			c0.39,0,0.49-0.3,0.36-0.59C267.79,317.87,264.44,310.6,264.44,310.6z"/>
		<path class="st0" d="M330.48,310.41c-2.37,0-4.26,1.89-4.26,4.24s1.89,4.27,4.26,4.27c1.01,0,1.96-0.37,2.69-0.96
			c0.1-0.08,0.15-0.19,0.15-0.35c0-0.3,0-0.84,0-1.05c0-0.29-0.17-0.19-0.27-0.05c-0.59,0.81-1.5,1.4-2.57,1.4
			c-1.76,0-3.18-1.5-3.18-3.26s1.42-3.23,3.18-3.23c1,0,1.88,0.51,2.47,1.23c0.27,0.34,0.37,0.22,0.37-0.03c0-0.12,0-0.64,0-0.93
			c0-0.17-0.07-0.27-0.14-0.34C332.47,310.72,331.49,310.41,330.48,310.41z"/>
		<path class="st0" d="M292.63,310.62h-0.03c-0.3,0-0.54,0.24-0.54,0.54c0,0,0,4.36,0,4.56c0,1.44-0.74,2.16-2.3,2.16
			c-1.2,0-2.16-0.76-2.16-2.47v-4.26c0-0.3-0.24-0.54-0.52-0.54h-0.05c-0.29,0-0.54,0.24-0.54,0.54v4.33c0,2.67,1.71,3.45,3.28,3.45
			c0.68,0,1.69-0.24,2.18-0.91c0.05-0.07,0.14-0.03,0.14,0.03c0,0.03,0,0.19,0,0.22c0,0.24,0.25,0.44,0.52,0.44h0.05
			c0.29,0,0.54-0.24,0.54-0.54l-0.02-7.01C293.17,310.85,292.93,310.62,292.63,310.62z"/>
		<path class="st0" d="M297.9,314.13c-0.1-0.13-0.07-0.24,0.02-0.32c0.1-0.08,2.3-2.06,2.3-2.06c0.22-0.2,0.24-0.52,0.05-0.74
			l-0.03-0.03c-0.2-0.2-0.52-0.22-0.74-0.03c0,0-3.16,2.92-3.3,3.04c-0.14,0.14-0.22,0.08-0.22-0.1c0-0.2,0-2.74,0-2.74
			c0-0.29-0.24-0.52-0.52-0.52h-0.05c-0.29,0-0.52,0.24-0.52,0.52v7.05c0,0.29,0.24,0.52,0.52,0.52h0.05c0.29,0,0.52-0.24,0.52-0.52
			c0,0,0-2.3,0-2.48c0-0.2,0.05-0.29,0.15-0.37c0.22-0.2,0.69-0.66,0.76-0.73c0.1-0.08,0.22-0.08,0.3,0.02
			c0.08,0.12,2.65,3.87,2.65,3.87c0.17,0.24,0.51,0.29,0.74,0.12l0.03-0.03c0.22-0.17,0.27-0.51,0.1-0.73
			C300.72,317.85,298.02,314.28,297.9,314.13z"/>
		<path class="st0" d="M411.25,310.11c0.81,0,1.5-0.24,2.08-0.9c0.64-0.74-0.27-1.35-0.74-0.73c-0.35,0.47-0.73,0.73-1.33,0.73
			c-0.63,0-1-0.25-1.35-0.73c-0.47-0.63-1.39-0.02-0.74,0.73C409.73,309.87,410.42,310.11,411.25,310.11z"/>
		<path class="st0" d="M457.41,310.62h-0.03c-0.3,0-0.54,0.24-0.54,0.54c0,0,0,4.36,0,4.56c0,1.44-0.74,2.16-2.3,2.16
			c-1.2,0-2.16-0.76-2.16-2.47v-4.26c0-0.3-0.24-0.54-0.52-0.54h-0.05c-0.29,0-0.54,0.24-0.54,0.54v4.33c0,2.67,1.71,3.45,3.28,3.45
			c0.68,0,1.69-0.24,2.18-0.91c0.05-0.07,0.14-0.03,0.14,0.03c0,0.03,0,0.19,0,0.22c0,0.24,0.25,0.44,0.52,0.44h0.05
			c0.29,0,0.54-0.24,0.54-0.54l-0.02-7.01C457.95,310.85,457.71,310.62,457.41,310.62z"/>
		<path class="st0" d="M429.63,310.62c-0.29,0-0.37,0.1-0.42,0.17c-0.24,0.27-1.79,2.03-2.08,2.4c-0.24,0.3-0.39,0.54-0.54,0.54
			c-0.14,0-0.3-0.24-0.54-0.54c-0.29-0.37-1.82-2.13-2.06-2.4c-0.02-0.02-0.14-0.17-0.39-0.17h-0.05c-0.29,0-0.52,0.24-0.52,0.52
			v7.05c0,0.29,0.24,0.52,0.52,0.52h0.05c0.29,0,0.52-0.24,0.52-0.52c0,0,0-5.54,0-5.61c0-0.15,0.07-0.07,0.1-0.03
			c0.63,0.66,1.5,1.62,1.94,2.11c0.19,0.19,0.27,0.27,0.42,0.27c0.17,0,0.25-0.08,0.42-0.27c0.46-0.49,1.33-1.45,1.94-2.11
			c0.03-0.03,0.1-0.12,0.1,0.03c0,0.07,0,5.61,0,5.61c0,0.29,0.24,0.52,0.52,0.52h0.05c0.29,0,0.52-0.24,0.52-0.52v-7.05
			C430.15,310.85,429.92,310.62,429.63,310.62z"/>
		<path class="st0" d="M438.84,311.65c-0.85-0.84-1.84-1.23-3.03-1.23c-1.18,0-2.18,0.39-3.02,1.23c-0.83,0.83-1.25,1.82-1.25,3.01
			s0.42,2.18,1.25,3.02c0.85,0.83,1.84,1.25,3.02,1.25c1.23,0,2.4-0.52,3.23-1.49c0.24-0.29,0.24-0.66-0.07-0.86
			c-0.39-0.24-0.63-0.07-1.01,0.41c-0.39,0.47-1.28,0.93-2.15,0.93c-0.88,0-1.62-0.42-2.23-1.03c-0.56-0.54-0.86-1.23-0.93-2.08
			c-0.02-0.25,0.03-0.32,0.27-0.32h6.47c0.47,0,0.54-0.42,0.51-0.68C439.79,312.97,439.43,312.24,438.84,311.65z M438.42,313.41
			h-5.2c-0.27,0-0.35-0.02-0.24-0.24c0.14-0.22,0.32-0.47,0.59-0.74c0.63-0.63,1.37-1,2.25-1c0.86,0,1.61,0.37,2.23,1
			c0.24,0.22,0.41,0.44,0.52,0.66C438.67,313.25,438.77,313.41,438.42,313.41z"/>
		<path class="st0" d="M466.79,317.6c-0.08,0-0.24,0.02-0.42,0.02c-0.05,0-0.15-0.05-0.15-0.22c0-0.15,0-6.25,0-6.25
			c0-0.29-0.24-0.52-0.52-0.52h-0.05c-0.29,0-0.52,0.24-0.52,0.52c0,0,0,6.13,0,6.32c0,0.19-0.07,0.27-0.19,0.29
			c-0.41,0.05-1.35,0.17-2.06,0.17c-1.17,0-2.11-0.78-2.11-2.45v-4.33c0-0.29-0.24-0.52-0.52-0.52h-0.05
			c-0.29,0-0.52,0.24-0.52,0.52v4.39c0,2.62,1.69,3.4,3.21,3.4c1,0,2.69-0.2,3.21-0.27c0.1-0.02,0.17,0,0.17,0.17
			c0,0.19-0.03,0.42-0.03,0.71c0,0.27,0.24,0.52,0.52,0.52h0.05c0.29,0,0.52-0.24,0.52-0.52v-1.42
			C467.31,317.83,467.07,317.6,466.79,317.6z"/>
		<path class="st0" d="M449.06,310.62h-0.05c-0.29,0-0.52,0.24-0.52,0.52c0,0.02,0,0.46,0,0.47c0,0.24-0.12,0.17-0.13,0.15
			c-0.85-0.9-1.98-1.35-3.13-1.35c-2.35,0-4.27,1.74-4.27,4.27c0,2.62,1.72,4.24,4.27,4.24c1.15,0,2.4-0.47,3.19-1.45
			c0.07-0.1,0.17,0.51,0.07,0.88c-0.1,0.39-0.44,0.84-0.95,1.35c-0.47,0.47-1.06,0.76-1.69,0.79c-0.29,0.02-0.71,0.15-0.66,0.69
			c0.05,0.42,0.46,0.54,0.76,0.49c0.91-0.14,1.71-0.51,2.38-1.18c0.83-0.83,1.23-1.81,1.23-2.96v-6.4
			C449.57,310.85,449.33,310.62,449.06,310.62z M445.23,317.92c-1.89,0-3.18-1.3-3.18-3.23c0-1.69,1.42-3.26,3.18-3.26
			c1.77,0,3.26,1.49,3.26,3.26C448.49,316.45,447,317.92,445.23,317.92z"/>
		<path class="st0" d="M489.19,312.19c-0.93,0-1.59,0.08-2.1,0.17c-0.1,0.02-0.27-0.02-0.27-0.22c0-0.22,0-1,0-1
			c0-0.29-0.24-0.52-0.52-0.52h-0.05c-0.29,0-0.52,0.24-0.52,0.52v7.05c0,0.29,0.14,0.52,0.37,0.52c0.51,0,0.34-0.59,0.71-0.39
			c0.81,0.47,1.72,0.61,2.38,0.61c2.03,0,3.36-1.69,3.36-3.51C492.56,313.76,491.56,312.19,489.19,312.19z M489.21,317.92
			c-1.08,0-2.38-0.2-2.38-0.73c0-0.42,0-2.2,0-3.02c0-0.68,0.08-0.96,2.38-0.95c1.66,0,2.26,1.06,2.26,2.2
			C491.47,316.73,490.65,317.92,489.21,317.92z"/>
		<path class="st0" d="M474.76,310.62h-0.03c-0.3,0-0.54,0.24-0.54,0.54c0,0,0,4.36,0,4.56c0,1.44-0.74,2.16-2.3,2.16
			c-1.2,0-2.16-0.76-2.16-2.47v-4.26c0-0.3-0.24-0.54-0.52-0.54h-0.05c-0.29,0-0.54,0.24-0.54,0.54v4.33c0,2.67,1.71,3.45,3.28,3.45
			c0.68,0,1.69-0.24,2.18-0.91c0.05-0.07,0.14-0.03,0.14,0.03c0,0.03,0,0.19,0,0.22c0,0.24,0.25,0.44,0.52,0.44h0.05
			c0.29,0,0.54-0.24,0.54-0.54l-0.02-7.01C475.3,310.85,475.07,310.62,474.76,310.62z"/>
		<path class="st0" d="M493.91,310.62h-0.05c-0.29,0-0.52,0.24-0.52,0.52v7.05c0,0.29,0.24,0.52,0.52,0.52h0.05
			c0.29,0,0.52-0.24,0.52-0.52v-7.05C494.43,310.85,494.19,310.62,493.91,310.62z"/>
		<path class="st0" d="M483.52,310.62h-0.05c-0.29,0-0.52,0.24-0.52,0.52v2.67c0,0.08-0.07,0.15-0.15,0.15h-4.53
			c-0.08,0-0.15-0.07-0.15-0.15v-2.67c0-0.29-0.24-0.52-0.52-0.52h-0.05c-0.29,0-0.52,0.24-0.52,0.52v7.05
			c0,0.29,0.24,0.52,0.52,0.52h0.05c0.29,0,0.52-0.24,0.52-0.52v-2.97c0-0.08,0.07-0.15,0.15-0.15h4.53c0.08,0,0.15,0.07,0.15,0.15
			v2.97c0,0.29,0.24,0.52,0.52,0.52h0.05c0.29,0,0.52-0.24,0.52-0.52v-7.05C484.04,310.85,483.8,310.62,483.52,310.62z"/>
		<path class="st0" d="M381,311.65c-0.84-0.84-1.84-1.23-3.02-1.23c-1.18,0-2.18,0.39-3.02,1.23c-0.83,0.83-1.25,1.82-1.25,3.01
			s0.42,2.18,1.25,3.02c0.85,0.83,1.84,1.25,3.02,1.25c1.23,0,2.4-0.52,3.23-1.49c0.24-0.29,0.24-0.66-0.07-0.86
			c-0.39-0.24-0.63-0.07-1.01,0.41c-0.39,0.47-1.28,0.93-2.15,0.93c-0.88,0-1.62-0.42-2.23-1.03c-0.56-0.54-0.86-1.23-0.93-2.08
			c-0.02-0.25,0.03-0.32,0.27-0.32h6.47c0.47,0,0.54-0.42,0.51-0.68C381.95,312.97,381.59,312.24,381,311.65z M380.58,313.41h-5.2
			c-0.27,0-0.35-0.02-0.24-0.24c0.14-0.22,0.32-0.47,0.59-0.74c0.63-0.63,1.37-1,2.25-1c0.86,0,1.61,0.37,2.23,1
			c0.24,0.22,0.41,0.44,0.52,0.66C380.83,313.25,380.93,313.41,380.58,313.41z"/>
		<path class="st0" d="M364.14,310.62h-0.03c-0.3,0-0.54,0.24-0.54,0.54c0,0,0,4.36,0,4.56c0,1.44-0.74,2.16-2.3,2.16
			c-1.2,0-2.16-0.76-2.16-2.47v-4.26c0-0.3-0.24-0.54-0.52-0.54h-0.05c-0.29,0-0.54,0.24-0.54,0.54v4.33c0,2.67,1.71,3.45,3.28,3.45
			c0.68,0,1.69-0.24,2.18-0.91c0.05-0.07,0.13-0.03,0.13,0.03c0,0.03,0,0.19,0,0.22c0,0.24,0.25,0.44,0.52,0.44h0.05
			c0.29,0,0.54-0.24,0.54-0.54l-0.02-7.01C364.68,310.85,364.44,310.62,364.14,310.62z"/>
		<path class="st0" d="M414.03,310.62H414c-0.3,0-0.54,0.24-0.54,0.54c0,0,0,4.36,0,4.56c0,1.44-0.74,2.16-2.3,2.16
			c-1.2,0-2.16-0.76-2.16-2.47v-4.26c0-0.3-0.24-0.54-0.52-0.54h-0.05c-0.29,0-0.54,0.24-0.54,0.54v4.33c0,2.67,1.71,3.45,3.28,3.45
			c0.68,0,1.69-0.24,2.18-0.91c0.05-0.07,0.13-0.03,0.13,0.03c0,0.03,0,0.19,0,0.22c0,0.24,0.25,0.44,0.52,0.44h0.05
			c0.29,0,0.54-0.24,0.54-0.54l-0.02-7.01C414.57,310.85,414.34,310.62,414.03,310.62z"/>
		<path class="st0" d="M348.59,311.65c-0.84-0.84-1.84-1.23-3.02-1.23c-1.18,0-2.18,0.39-3.02,1.23c-0.83,0.83-1.25,1.82-1.25,3.01
			s0.42,2.18,1.25,3.02c0.85,0.83,1.84,1.25,3.02,1.25c1.23,0,2.4-0.52,3.23-1.49c0.24-0.29,0.24-0.66-0.07-0.86
			c-0.39-0.24-0.63-0.07-1.01,0.41c-0.39,0.47-1.28,0.93-2.15,0.93c-0.88,0-1.62-0.42-2.23-1.03c-0.56-0.54-0.86-1.23-0.93-2.08
			c-0.02-0.25,0.03-0.32,0.27-0.32h6.47c0.47,0,0.54-0.42,0.51-0.68C349.54,312.97,349.18,312.24,348.59,311.65z M348.17,313.41
			h-5.2c-0.27,0-0.35-0.02-0.24-0.24c0.14-0.22,0.32-0.47,0.59-0.74c0.63-0.63,1.37-1,2.25-1c0.86,0,1.61,0.37,2.23,1
			c0.24,0.22,0.41,0.44,0.52,0.66C348.42,313.25,348.52,313.41,348.17,313.41z"/>
		<path class="st0" d="M371.77,310.62h-0.03c-0.29,0-0.52,0.24-0.52,0.52c0,0,0,1.67,0,1.88c0,1.4-0.56,2.11-2.1,2.11
			c-1.17,0-1.94-0.74-1.94-2.43v-1.55c0-0.29-0.24-0.52-0.52-0.52h-0.05c-0.29,0-0.52,0.24-0.52,0.52v1.64
			c0,2.62,1.5,3.36,3.04,3.36c0.66,0,1.44-0.13,1.94-0.88c0.07-0.1,0.15-0.12,0.15,0.1c0,0.15,0,2.82,0,2.82
			c0,0.29,0.24,0.52,0.52,0.52h0.05c0.29,0,0.52-0.24,0.52-0.52l-0.02-7.05C372.3,310.85,372.06,310.62,371.77,310.62z"/>
		<path class="st0" d="M356.16,310.62h-5.02c-0.29,0-0.52,0.24-0.52,0.52v0.03c0,0.29,0.24,0.52,0.52,0.52h1.79
			c0.1,0,0.17,0.08,0.17,0.17v6.32c0,0.29,0.24,0.52,0.52,0.52h0.05c0.29,0,0.52-0.24,0.52-0.52v-6.32c0-0.08,0.07-0.17,0.15-0.17
			h1.81c0.29,0,0.52-0.24,0.52-0.52v-0.03C356.68,310.85,356.45,310.62,356.16,310.62z"/>
		<path class="st0" d="M402.22,310.41c-2.35,0-4.26,1.91-4.26,4.26c0,2.35,1.91,4.26,4.26,4.26c2.37,0,4.27-1.91,4.27-4.26
			C406.5,312.32,404.59,310.41,402.22,310.41z M402.22,317.92c-1.74,0-3.18-1.49-3.18-3.24c0-1.76,1.44-3.24,3.18-3.24
			c1.76,0,3.18,1.49,3.18,3.24C405.4,316.43,403.98,317.92,402.22,317.92z"/>
		<path class="st0" d="M394.59,314.13c-0.1-0.13-0.07-0.24,0.02-0.32c0.1-0.08,2.3-2.06,2.3-2.06c0.22-0.2,0.24-0.52,0.05-0.74
			l-0.03-0.03c-0.2-0.2-0.52-0.22-0.74-0.03c0,0-3.16,2.92-3.29,3.04c-0.13,0.14-0.22,0.08-0.22-0.1c0-0.2,0-2.74,0-2.74
			c0-0.29-0.24-0.52-0.52-0.52h-0.05c-0.29,0-0.52,0.24-0.52,0.52v7.05c0,0.29,0.24,0.52,0.52,0.52h0.05c0.29,0,0.52-0.24,0.52-0.52
			c0,0,0-2.3,0-2.48c0-0.2,0.05-0.29,0.15-0.37c0.22-0.2,0.69-0.66,0.76-0.73c0.1-0.08,0.22-0.08,0.3,0.02
			c0.08,0.12,2.65,3.87,2.65,3.87c0.17,0.24,0.51,0.29,0.74,0.12l0.03-0.03c0.22-0.17,0.27-0.51,0.1-0.73
			C397.41,317.85,394.7,314.28,394.59,314.13z"/>
		<path class="st0" d="M339.77,310.62h-5.02c-0.29,0-0.52,0.24-0.52,0.52v0.03c0,0.29,0.24,0.52,0.52,0.52h1.79
			c0.1,0,0.17,0.08,0.17,0.17v6.32c0,0.29,0.24,0.52,0.52,0.52h0.05c0.29,0,0.52-0.24,0.52-0.52v-6.32c0-0.08,0.07-0.17,0.15-0.17
			h1.81c0.29,0,0.52-0.24,0.52-0.52v-0.03C340.29,310.85,340.06,310.62,339.77,310.62z"/>
		<path class="st0" d="M387.42,310.41c-2.37,0-4.26,1.89-4.26,4.24s1.89,4.27,4.26,4.27c1.01,0,1.96-0.37,2.69-0.96
			c0.1-0.08,0.15-0.19,0.15-0.35c0-0.3,0-0.84,0-1.05c0-0.29-0.17-0.19-0.27-0.05c-0.59,0.81-1.5,1.4-2.57,1.4
			c-1.76,0-3.18-1.5-3.18-3.26s1.42-3.23,3.18-3.23c1,0,1.88,0.51,2.47,1.23c0.27,0.34,0.37,0.22,0.37-0.03c0-0.12,0-0.64,0-0.93
			c0-0.17-0.07-0.27-0.14-0.34C389.41,310.72,388.43,310.41,387.42,310.41z"/>
	</g>
</g>
</svg>
