<?xml version="1.0" encoding="utf-8"?>
<!-- Generator: Adobe Illustrator 26.0.1, SVG Export Plug-In . SVG Version: 6.00 Build 0)  -->
<svg version="1.1" xmlns="http://www.w3.org/2000/svg" xmlns:xlink="http://www.w3.org/1999/xlink" x="0px" y="0px"
	 viewBox="0 0 595.28 572.31" style="enable-background:new 0 0 595.28 572.31;" xml:space="preserve">
<style type="text/css">
	.st0{fill:#020204;}
</style>
<g id="Слой_1">
</g>
<g id="Слой_2">
	<g>
		<path class="st0" d="M276.32,263.5c-1.28-1.3-3.02-2.34-5.21-3.11c-2.93-0.61-5.87-1.24-8.8-1.85c-4.34-1-6.51-2.19-6.51-3.57
			c0-1.01,0.83-1.77,2.48-2.31c1.45-0.5,3.31-0.75,5.58-0.75c3.18-0.04,5.6,0.34,7.25,1.13c0.62,0.28,1.2,0.42,1.74,0.42
			c1.03,0,1.9-0.37,2.6-1.12c0.7-0.75,1.05-1.58,1.05-2.5c0-1.34-0.7-2.34-2.11-2.99c-2.69-1.23-6.07-1.84-10.16-1.84
			c-4.17,0-7.69,0.69-10.54,2.07c-3.59,1.76-5.39,4.41-5.39,7.94c0,5.72,4.75,9.21,14.25,10.47c5.83,0.77,8.74,2.28,8.74,4.55
			c0,0.96-0.68,2.03-2.04,3.22c-1.12,0.96-3.16,1.44-6.14,1.44c-3.1,0-6.16-0.56-9.17-1.67c-0.5-0.19-0.99-0.29-1.49-0.29
			c-1.03,0-1.9,0.36-2.6,1.09c-0.7,0.73-1.05,1.55-1.05,2.47c0,1.5,0.79,2.53,2.36,3.11c3.88,1.46,7.87,2.19,11.96,2.19
			c4.92,0,8.64-1.09,11.16-3.29c3.14-2.68,4.71-5.59,4.71-8.7C278.99,267.35,278.1,265.31,276.32,263.5z"/>
		<path class="st0" d="M242.37,263.31c0-1.23-0.13-2.45-0.38-3.67c-0.25-1.19-0.63-2.39-1.15-3.58c-1.02-2.38-2.42-4.39-4.18-6.04
			c-0.88-0.81-1.83-1.55-2.86-2.19c-1.02-0.64-2.12-1.2-3.3-1.67h-0.01c-1.18-0.48-2.41-0.84-3.66-1.07
			c-1.27-0.24-2.57-0.36-3.88-0.36c-1.32,0-2.61,0.12-3.88,0.36c-1.26,0.24-2.48,0.6-3.66,1.07h0c-2.36,0.95-4.41,2.24-6.16,3.87
			c-1.76,1.63-3.15,3.65-4.18,6.04c-1.02,2.38-1.53,4.79-1.53,7.25c0,1.22,0.13,2.42,0.39,3.61c0.26,1.17,0.64,2.3,1.16,3.4v0.01
			c0.51,1.1,1.11,2.12,1.8,3.06c0.7,0.96,1.49,1.85,2.36,2.66c0.88,0.81,1.83,1.55,2.86,2.19c1.01,0.63,2.11,1.19,3.3,1.67
			c1.18,0.48,2.4,0.84,3.67,1.07c1.27,0.24,2.57,0.36,3.88,0.36c1.32,0,2.61-0.12,3.88-0.36c1.26-0.24,2.49-0.6,3.67-1.07
			c1.18-0.48,2.28-1.03,3.3-1.67c1.03-0.65,1.99-1.38,2.86-2.2c0.89-0.82,1.67-1.71,2.36-2.66c0.68-0.94,1.29-1.96,1.8-3.07
			c0.51-1.1,0.9-2.23,1.16-3.4C242.24,265.74,242.37,264.54,242.37,263.31z M235.34,265.66c-0.16,0.74-0.41,1.47-0.74,2.18
			c-0.33,0.71-0.72,1.38-1.17,2c-0.45,0.63-0.97,1.2-1.54,1.73c-0.57,0.53-1.19,1.01-1.87,1.43v0c-0.67,0.42-1.39,0.79-2.18,1.11
			c-0.77,0.31-1.56,0.54-2.37,0.7c-0.8,0.15-1.65,0.23-2.53,0.23c-0.88,0-1.73-0.08-2.53-0.23c-0.8-0.15-1.58-0.39-2.35-0.7
			c-0.77-0.31-1.49-0.68-2.16-1.11c-0.67-0.43-1.3-0.9-1.87-1.43v0c-0.58-0.54-1.1-1.12-1.55-1.73c-0.45-0.62-0.85-1.29-1.19-2
			c-0.34-0.71-0.59-1.44-0.75-2.18c-0.17-0.74-0.25-1.53-0.25-2.35c0-0.82,0.08-1.63,0.25-2.44c0.17-0.81,0.43-1.62,0.77-2.44
			c0.34-0.8,0.74-1.54,1.2-2.22c0.45-0.67,0.96-1.26,1.52-1.78l0.01,0c0.57-0.53,1.19-1,1.86-1.42c0.67-0.42,1.39-0.78,2.15-1.09
			c0.77-0.31,1.56-0.54,2.35-0.68c0.8-0.15,1.64-0.22,2.53-0.22c0.88,0,1.73,0.08,2.53,0.23c0.8,0.15,1.58,0.39,2.35,0.7
			c0.77,0.32,1.49,0.68,2.16,1.11c0.66,0.42,1.29,0.9,1.87,1.44c0.58,0.54,1.09,1.13,1.53,1.77c0.45,0.66,0.85,1.39,1.19,2.2
			c0.34,0.8,0.6,1.61,0.77,2.42c0.17,0.8,0.25,1.61,0.25,2.43C235.58,264.14,235.5,264.92,235.34,265.66z"/>
		<path class="st0" d="M264.19,291.25c-1.14-0.19-2.29-0.29-3.47-0.29c-5.4,0-10.28,2.04-13.8,5.35c-3.52,3.31-5.7,7.88-5.7,12.94
			c0,5.04,2.18,9.6,5.71,12.91c3.52,3.3,8.4,5.34,13.79,5.34c1.18,0,2.33-0.1,3.47-0.29c1.12-0.19,2.2-0.47,3.26-0.82l0.82-0.27
			v-8.19l-1.88,1.09c-0.85,0.49-1.75,0.86-2.69,1.11c-0.94,0.25-1.93,0.37-2.97,0.37c-3.13,0-5.99-1.26-8.06-3.28
			c-2.09-2.04-3.38-4.85-3.38-7.95c0-3.12,1.29-5.95,3.38-7.99c2.07-2.03,4.92-3.29,8.06-3.29c1.02,0,1.99,0.13,2.92,0.38
			c0.96,0.26,1.88,0.65,2.74,1.15l1.88,1.09v-8.24l-0.82-0.27C266.39,291.72,265.31,291.44,264.19,291.25z"/>
		<path class="st0" d="M388.67,265.5c5.83,0.77,8.74,2.28,8.74,4.55c0,0.96-0.68,2.03-2.05,3.22c-1.12,0.96-3.16,1.44-6.14,1.44
			c-3.1,0-6.16-0.56-9.17-1.67c-0.5-0.19-0.99-0.29-1.49-0.29c-1.03,0-1.9,0.36-2.6,1.09c-0.7,0.73-1.05,1.55-1.05,2.47
			c0,1.5,0.78,2.53,2.35,3.11c3.88,1.46,7.87,2.19,11.96,2.19c4.92,0,8.64-1.09,11.16-3.29c3.14-2.68,4.71-5.59,4.71-8.7
			c0-2.27-0.89-4.31-2.66-6.12c-1.28-1.3-3.02-2.34-5.21-3.11c-2.93-0.61-5.87-1.24-8.8-1.85c-4.34-1-6.51-2.19-6.51-3.57
			c0-1.01,0.83-1.77,2.48-2.31c1.45-0.5,3.31-0.75,5.58-0.75c3.18-0.04,5.6,0.34,7.25,1.13c0.62,0.28,1.2,0.42,1.74,0.42
			c1.03,0,1.9-0.37,2.6-1.12c0.7-0.75,1.05-1.58,1.05-2.5c0-1.34-0.7-2.34-2.11-2.99c-2.69-1.23-6.07-1.84-10.16-1.84
			c-4.17,0-7.69,0.69-10.54,2.07c-3.6,1.76-5.39,4.41-5.39,7.94C374.41,260.74,379.16,264.23,388.67,265.5z"/>
		<path class="st0" d="M300.82,320.57H283.5v-25.99c0-1.1-0.38-1.96-1.14-2.58c-0.75-0.62-1.65-0.93-2.66-0.93
			c-1.02,0-1.91,0.31-2.66,0.93c-0.76,0.62-1.14,1.48-1.14,2.58v33h24.92c1.17,0,2.1-0.34,2.77-1.02c0.67-0.68,1.01-1.51,1.01-2.48
			c0-0.93-0.34-1.75-1.01-2.45C302.9,320.92,301.99,320.57,300.82,320.57z"/>
		<path class="st0" d="M192.79,260.25c1.42-1.17,2.29-2.65,2.33-4.53c0.08-4.76,2.43-8.33,7.08-10.29
			c-7.1-1.25-14.26,1.84-18.21,7.86c-3.96,6.02-3.96,13.82,0,19.84c3.96,6.02,11.12,9.11,18.21,7.86c-3.37-4.53-4.77-5.15-5.93-5.28
			l-0.01,0l-0.01,0l-0.01,0h0l0,0l0,0l0,0l-0.01,0l-0.01,0h0l0,0l0,0h0l-0.01,0h0l-0.01,0h0l-0.01,0l0,0h0h-0.01v0h-0.01l0,0h0h0h0
			l-0.01,0l-0.01,0l-0.01,0h-0.01h0l-0.01,0h-0.01l-0.01,0h-0.01h-0.01l-0.01,0h-0.01h-0.01h-0.01l-0.01,0h-0.01l-0.02,0H196
			l-0.02,0h-0.01l-0.01,0h-0.01l-0.01,0c-0.55-0.03-1.16-0.06-1.75-0.12c-1.03-0.11-1.98-0.35-2.34-1c-0.42-0.85-0.37-1.72,0.07-2.6
			c0.26-0.52,0.43-0.85,0.06-1.22c-0.34-0.34-0.66-0.45-0.72-0.92c-0.07-0.52,0.19-0.93,0.52-1.16c0.15-0.11,0.36-0.13,0.54-0.22
			c0.57-0.29-0.8-0.52-1.14-1.16c-0.21-0.38-0.13-0.85,0.17-1.25c0.27-0.35,0.57-0.66,0.58-1.2c0.02-0.99-1.03-1.24-1.28-2.22
			C190.41,261.57,192.2,260.74,192.79,260.25z"/>
		<path class="st0" d="M365.13,250.9c-1.55-1.97-3.42-3.44-5.6-4.42c-2.19-0.98-4.72-1.47-7.58-1.47c-5.99,0-10.65,1.64-13.96,4.92
			c-1.66,1.64-2.9,3.56-3.73,5.77c-0.84,2.22-1.26,4.74-1.26,7.56c0,2.66,0.43,5.05,1.29,7.17c0.85,2.11,2.13,3.96,3.84,5.55
			c1.7,1.59,3.68,2.79,5.93,3.59c2.26,0.8,4.82,1.2,7.65,1.2c0.12,0,0.23,0,0.34-0.01v-6.89c-0.11-0.01-0.23-0.01-0.34-0.01
			c-2.27,0-4.21-0.36-5.83-1.1c-1.66-0.75-2.96-1.87-3.89-3.37l-0.86-1.38h1.72h26.4v-3.6c0-2.73-0.35-5.23-1.04-7.49
			C367.53,254.69,366.5,252.68,365.13,250.9z M340.5,261.12l0.21-1.08c0.51-2.69,1.73-4.72,3.65-6.09c1.89-1.36,4.43-2.03,7.61-2.03
			c2.51,0,4.56,0.7,6.14,2.09c1.54,1.36,2.59,3.36,3.15,6.01l0.23,1.1H340.5z"/>
		<path class="st0" d="M315.95,291.07c-1.02,0-1.91,0.31-2.66,0.93c-0.77,0.62-1.14,1.48-1.14,2.58v29.48
			c0,1.14,0.38,2.01,1.14,2.61c0.75,0.6,1.65,0.91,2.66,0.91c1.06,0,1.96-0.3,2.7-0.91c0.74-0.6,1.11-1.47,1.11-2.61v-29.48
			c0-1.1-0.37-1.96-1.11-2.58C317.92,291.38,317.01,291.07,315.95,291.07z"/>
		<path class="st0" d="M406.71,297.97c1.02,0,1.99,0.13,2.91,0.38c0.96,0.26,1.88,0.65,2.74,1.15l1.88,1.09v-8.24l-0.82-0.27
			c-1.05-0.35-2.14-0.63-3.26-0.82c-1.14-0.19-2.29-0.29-3.47-0.29c-5.4,0-10.28,2.04-13.8,5.35c-3.52,3.31-5.7,7.88-5.7,12.94
			c0,5.04,2.18,9.6,5.71,12.91c3.52,3.3,8.4,5.34,13.79,5.34c1.18,0,2.33-0.1,3.47-0.29c1.12-0.19,2.2-0.47,3.26-0.82l0.82-0.27
			v-8.19l-1.88,1.09c-0.85,0.49-1.75,0.86-2.69,1.11c-0.94,0.25-1.93,0.37-2.97,0.37c-3.13,0-5.99-1.26-8.06-3.28
			c-2.09-2.04-3.38-4.85-3.38-7.95c0-3.12,1.29-5.95,3.38-7.99C400.72,299.23,403.58,297.97,406.71,297.97z"/>
		<path class="st0" d="M375.89,291.07c-1.02,0-1.91,0.31-2.66,0.93c-0.77,0.62-1.14,1.48-1.14,2.58v29.48
			c0,1.14,0.38,2.01,1.14,2.61c0.75,0.6,1.65,0.91,2.66,0.91c1.06,0,1.96-0.3,2.7-0.91c0.74-0.6,1.11-1.47,1.11-2.61v-29.48
			c0-1.1-0.37-1.96-1.11-2.58C377.86,291.38,376.95,291.07,375.89,291.07z"/>
		<path class="st0" d="M359.57,291.07c-1.06,0-1.96,0.31-2.7,0.93c-0.74,0.62-1.11,1.48-1.11,2.57v15.83l-27.31-19.34v32.84
			c0,1.13,0.38,1.99,1.14,2.59c0.76,0.6,1.65,0.91,2.66,0.91c1.06,0,1.96-0.3,2.7-0.9c0.74-0.6,1.11-1.47,1.11-2.59v-18.07
			l27.31,21.56v-32.83c0-1.09-0.38-1.95-1.14-2.57C361.48,291.38,360.58,291.07,359.57,291.07z"/>
		<path class="st0" d="M286.75,245.11v32.68c0,1.11,0.37,1.98,1.13,2.57c0.74,0.6,1.62,0.9,2.62,0.9c1.04,0,1.93-0.3,2.65-0.89
			c0.73-0.6,1.1-1.46,1.1-2.57v-12.02l12.46,14.96l12.46-14.96v12.02c0,1.11,0.36,1.97,1.1,2.57c0.72,0.59,1.61,0.89,2.65,0.89
			c1,0,1.88-0.3,2.62-0.9c0.75-0.59,1.13-1.46,1.13-2.57v-32.68l-19.96,23.31L286.75,245.11z"/>
	</g>
</g>
</svg>
