<?xml version="1.0" encoding="utf-8"?>
<!-- Generator: Adobe Illustrator 26.0.1, SVG Export Plug-In . SVG Version: 6.00 Build 0)  -->
<svg version="1.1" xmlns="http://www.w3.org/2000/svg" xmlns:xlink="http://www.w3.org/1999/xlink" x="0px" y="0px"
	 viewBox="0 0 595.28 572.31" style="enable-background:new 0 0 595.28 572.31;" xml:space="preserve">
<style type="text/css">
	.st0{fill:#020204;}
</style>
<g id="Слой_1">
	<path class="st0" d="M321.69,350.7l-0.04-0.01l-0.04-0.01l-0.03-0.01h-0.01l-0.02,0l-0.02,0l-0.01,0l-0.03,0l-0.03,0h-0.01l-0.03,0
		l-0.02,0h-0.01l-0.03,0h0l-0.03,0h-0.01l-0.03,0l-0.02,0h-0.01h-0.03v0h-0.04l-0.01,0h-0.02h-0.02h-0.01l-0.03,0l-0.05,0l-0.05,0
		h-0.03h-0.02l-0.05,0h-0.05l-0.04,0h-0.05h-0.05l-0.05,0h-0.04h-0.05h-0.05l-0.04,0h-0.04l-0.09,0h-0.04l-0.09,0h-0.04l-0.04,0
		h-0.04l-0.04,0c-2.84-0.17-6-0.3-9.02-0.63c-5.34-0.59-10.23-1.83-12.06-5.15c-2.17-4.39-1.91-8.88,0.38-13.43
		c1.35-2.67,2.24-4.41,0.33-6.32c-1.74-1.74-3.43-2.32-3.74-4.74c-0.34-2.7,1-4.78,2.68-5.97c0.78-0.56,1.88-0.68,2.8-1.15
		c2.96-1.49-4.13-2.7-5.89-5.99c-1.06-1.98-0.68-4.4,0.9-6.47c1.39-1.81,2.92-3.39,2.99-6.18c0.12-5.09-5.32-6.42-6.59-11.46
		c-1.37-5.46,7.86-9.73,10.92-12.25c7.35-6.06,11.84-13.7,12.02-23.4c0.43-24.58,12.52-43,36.57-53.11
		c-36.64-6.45-73.6,9.51-94.04,40.59c-20.44,31.08-20.44,71.34,0,102.43c20.44,31.08,57.41,47.04,94.04,40.59
		C334.93,354.56,327.67,351.39,321.69,350.7z"/>
</g>
<g id="Слой_2">
</g>
</svg>
